<svg t="1640901505633" class="icon" viewBox="0 0 1024 1024" version="1.1" xmlns="http://www.w3.org/2000/svg" p-id="5962" width="200" height="200"><path d="M597.333333 170.666667h170.666667v256H597.333333v8.533333c-0.273067 17.322667-8.8064 34.116267-25.6 50.346667-16.503467 17.066667-36.420267 25.6-59.733333 25.6-23.330133 0-43.52-8.533333-60.586667-25.6-15.940267-15.940267-24.183467-34.423467-24.746666-55.466667V426.666667H256v8.533333c-0.273067 17.322667-8.8064 34.116267-25.6 50.346667-16.503467 17.066667-36.4032 25.6-59.733333 25.6s-43.52-8.533333-60.586667-25.6C93.576533 469.0432 85.333333 449.416533 85.333333 426.666667h170.666667V170.666667h170.666667v256h170.666666V170.666667z m256 340.48c-23.313067 0-43.52-8.533333-60.586666-25.6-16.247467-16.247467-24.5248-33.024-24.746667-50.346667V426.666667h170.666667c0 22.749867-8.533333 42.376533-25.6 58.88-16.503467 17.066667-36.420267 25.6-59.733334 25.6z" p-id="5963" fill="#EA9769"></path><path d="M772.266667 955.733333H256c-66.030933 0-102.4-36.369067-102.4-102.4V526.865067c-20.8896-3.396267-39.5264-13.192533-55.586133-29.252267C78.267733 477.866667 68.266667 454.007467 68.266667 426.666667V254.293333c0.597333-59.101867 30.72-93.969067 85.333333-99.822933V85.333333a17.066667 17.066667 0 0 1 17.066667-17.066666h682.666666a17.066667 17.066667 0 0 1 17.066667 17.066666v68.983467l2.389333 0.3072c37.137067 4.232533 82.107733 24.968533 82.944 99.4816V426.666667c0 27.4432-10.359467 51.387733-30.805333 71.150933-15.3088 15.854933-33.672533 25.6512-54.528 29.047467V853.333333c0 76.100267-45.3632 97.160533-83.438933 101.444267a107.6224 107.6224 0 0 1-14.6944 0.955733zM187.733333 526.865067V853.333333c0 47.223467 21.0432 68.266667 68.266667 68.266667h516.266667c3.7376 0 7.2192-0.238933 10.4448-0.682667C819.882667 916.736 836.266667 895.8976 836.266667 853.333333V526.865067c-20.8896-3.396267-39.5264-13.192533-55.586134-29.252267a125.5424 125.5424 0 0 1-12.919466-14.984533c-3.874133 5.154133-8.362667 10.24-13.499734 15.2064-19.336533 20.0192-43.5712 30.378667-71.594666 30.378666-27.904 0-52.343467-10.2912-72.6528-30.600533a128.273067 128.273067 0 0 1-12.919467-14.984533c-3.874133 5.154133-8.362667 10.24-13.499733 15.2064-19.336533 20.0192-43.5712 30.378667-71.594667 30.378666-27.904 0-52.343467-10.2912-72.6528-30.600533a110.2848 110.2848 0 0 1-12.919467-15.4112c-3.857067 5.444267-8.362667 10.6496-13.5168 15.616-19.336533 20.036267-43.554133 30.395733-71.5776 30.395733-27.904 0-52.343467-10.2912-72.6528-30.600533a127.010133 127.010133 0 0 1-12.919466-15.0016c-3.857067 5.1712-8.362667 10.24-13.5168 15.2064-15.291733 15.854933-33.6384 25.6512-54.510934 29.047467zM786.158933 443.733333c2.3552 9.7792 8.516267 19.6096 18.653867 29.7472 13.8752 13.858133 29.730133 20.599467 48.520533 20.599467 18.670933 0 34.2016-6.673067 47.4624-20.394667 9.454933-9.147733 15.5648-19.012267 18.5856-29.952h-133.2224z m-170.6496 0c2.372267 9.8304 8.516267 19.626667 18.6368 29.7472 13.8752 13.858133 29.730133 20.599467 48.520534 20.599467 18.670933 0 34.2016-6.673067 47.4624-20.394667 10.5472-10.205867 17.0496-20.189867 19.575466-29.952h-134.1952z m-169.813333 0c2.833067 10.8544 8.721067 20.667733 17.783467 29.7472 13.8752 13.858133 29.730133 20.599467 48.520533 20.599467 18.670933 0 34.2016-6.673067 47.4624-20.394667 10.5472-10.205867 17.0496-20.189867 19.575467-29.952h-133.341867z m-171.52 0c2.389333 9.847467 8.533333 19.643733 18.6368 29.7472 13.8752 13.858133 29.730133 20.599467 48.520533 20.599467 18.670933 0 34.184533-6.673067 47.4624-20.394667 9.642667-9.3184 15.803733-19.165867 18.756267-29.952h-133.376z m-169.659733 0c2.884267 11.008 8.721067 20.8384 17.646933 29.7472 13.858133 13.858133 29.713067 20.599467 48.503467 20.599467 18.670933 0 34.184533-6.673067 47.4624-20.394667 10.5472-10.205867 17.0496-20.189867 19.575466-29.952H104.516267zM785.066667 409.6h136.533333v-155.306667c-0.4608-41.3184-16.8448-61.678933-53.128533-65.809066A74.5984 74.5984 0 0 0 857.6 187.733333H785.066667v221.866667z m-170.666667 0h136.533333V187.733333h-136.533333v221.866667z m-170.666667 0h136.533334V187.733333h-136.533334v221.866667z m-170.666666 0h136.533333V187.733333h-136.533333v221.866667zM102.4 409.6h136.533333V187.733333h-68.266666c-46.7456 0-67.805867 20.5824-68.266667 66.730667V409.6zM768 153.6h68.266667V102.4H187.733333v51.2h580.266667z m0 716.8H256a17.066667 17.066667 0 0 1-17.066667-17.066667V597.333333a17.066667 17.066667 0 0 1 17.066667-17.066666h512a17.066667 17.066667 0 0 1 17.066667 17.066666v256a17.066667 17.066667 0 0 1-17.066667 17.066667z m-494.933333-34.133333h477.866666V614.4H273.066667v221.866667z" p-id="5964" fill="#EA9769"></path></svg>