<?xml version="1.0" standalone="no"?><!DOCTYPE svg PUBLIC "-//W3C//DTD SVG 1.1//EN" "http://www.w3.org/Graphics/SVG/1.1/DTD/svg11.dtd"><svg t="1637800909021" class="icon" viewBox="0 0 1024 1024" version="1.1" xmlns="http://www.w3.org/2000/svg" p-id="13211" xmlns:xlink="http://www.w3.org/1999/xlink" width="200" height="200"><defs><style type="text/css"></style></defs><path d="M797.118175 927.338906c-10.751113 0-21.572463-1.167309-32.162329-3.467303-81.296143-17.663956-133.064315-98.174638-115.401348-179.470781 7.357014-33.859873 26.309956-64.377088 53.367782-85.929766 26.665095-21.241066 60.027378-32.937897 93.941659-32.937896 10.751113 0 21.571473 1.167309 32.16134 3.467303 39.381838 8.555979 73.073539 31.936781 94.87056 65.834245 21.796032 33.897464 29.087756 74.254698 20.530788 113.635547-7.357014 33.859873-26.309956 64.377088-53.366792 85.930754-26.664106 21.240076-60.026389 32.937897-93.94166 32.937897z m-0.253247-262.236941c-51.909635 0-97.599887 36.883005-108.641838 87.700514-13.030333 59.974948 25.161443 119.36921 85.135402 132.401521 7.83383 1.70249 15.827918 2.565112 23.760672 2.565112 51.909635 0 97.600876-36.883995 108.641839-87.700514 6.312371-29.053132 0.932858-58.825446-15.146328-83.833556-16.080175-25.006132-40.935942-42.255594-69.989074-48.567965a112.185313 112.185313 0 0 0-23.760673-2.565112z" p-id="13212" fill="#ffffff"></path><path d="M825.619309 668.120151c-1.391868 0-2.804509-0.147397-4.220119-0.455053-10.677909-2.319779-17.453247-12.857215-15.133468-23.534135l12.194422-56.126786c2.320768-10.677909 12.861172-17.453247 23.534135-15.133468 10.677909 2.319779 17.453247 12.857215 15.133468 23.534136l-12.194422 56.126785c-2.012124 9.2623-10.207028 15.588521-19.314016 15.588521zM754.209679 993.205797c-1.391868 0-2.804509-0.148387-4.220118-0.455053-10.677909-2.319779-17.453247-12.857215-15.132479-23.535124l12.195411-56.125797c2.319779-10.677909 12.862162-17.455226 23.535124-15.132478 10.677909 2.319779 17.453247 12.857215 15.132479 23.535124l-12.195411 56.125796c-2.013113 9.26131-10.208018 15.587531-19.315006 15.587532zM985.475343 845.101002c-1.415609 0-2.851993-0.152344-4.291344-0.47088l-56.080292-12.402163c-10.669006-2.359349-17.404774-12.921516-15.045425-23.590522 2.359349-10.669006 12.919538-17.405763 23.590523-15.045425l56.080291 12.402163c10.669006 2.359349 17.404774 12.921516 15.045425 23.590522-2.040812 9.229655-10.221867 15.516306-19.299178 15.516305zM661.640102 773.489567c-1.415609 0-2.851993-0.152344-4.290355-0.470881l-56.08128-12.402162c-10.669006-2.359349-17.405763-12.921516-15.046414-23.590523 2.359349-10.669006 12.921516-17.404774 23.590522-15.045425l56.08128 12.402163c10.669006 2.359349 17.405763 12.921516 15.046415 23.590522-2.041801 9.229655-10.222856 15.516306-19.300168 15.516306zM910.027616 727.681595c-6.43207 0-12.739495-3.131949-16.542153-8.905183-6.009663-9.125784-3.48412-21.395388 5.641664-27.40505l47.969472-31.590545c9.126773-6.008673 21.396377-3.483131 27.405051 5.642652 6.009663 9.125784 3.48412 21.395388-5.641664 27.405051l-47.969472 31.590545a19.701801 19.701801 0 0 1-10.862898 3.26253zM633.037076 910.092411c-6.43207 0-12.739495-3.131949-16.542152-8.905182-6.009663-9.125784-3.48412-21.395388 5.641663-27.40505l47.967494-31.589556c9.126773-6.009663 21.396377-3.483131 27.405051 5.641663 6.009663 9.125784 3.48412 21.395388-5.641664 27.40505l-47.967494 31.589557a19.695865 19.695865 0 0 1-10.862898 3.263518zM901.917786 965.963972c-6.45779 0-12.786979-3.15668-16.582711-8.966516l-31.410503-48.084225c-5.976028-9.147547-3.404981-21.408248 5.743556-27.384276 9.148536-5.97405 21.409237-3.403992 27.384276 5.743556l31.410503 48.084225c5.976028 9.147547 3.404981 21.408248-5.743556 27.384276a19.693887 19.693887 0 0 1-10.801565 3.22296zM720.52787 688.304703c-6.45779 0-12.786979-3.15668-16.582711-8.966516l-31.411492-48.085214c-5.976028-9.147547-3.404981-21.408248 5.743555-27.384276 9.147547-5.975039 21.408248-3.403992 27.384277 5.743556l31.411492 48.085214c5.976028 9.147547 3.404981 21.408248-5.743556 27.384276a19.693887 19.693887 0 0 1-10.801565 3.22296zM402.550938 788.745701H194.051756c-10.927199 0-19.784897-8.857698-19.784898-19.784897s8.857698-19.784897 19.784898-19.784897h208.499182c10.927199 0 19.784897 8.857698 19.784897 19.784897s-8.857698 19.784897-19.784897 19.784897zM495.513245 526.815426c-65.232785 0-126.562009-25.402819-172.688518-71.530318-46.126509-46.126509-71.530317-107.455734-71.530317-172.688518 0-65.232785 25.402819-126.562009 71.530317-172.689508 46.126509-46.126509 107.455734-71.529328 172.688518-71.529328 65.233774 0 126.562998 25.402819 172.689508 71.529328 46.126509 46.127499 71.530317 107.455734 71.530317 172.689508s-25.402819 126.562009-71.530317 172.688518c-46.126509 46.127499-107.455734 71.530317-172.689508 71.530318z m0-448.867877c-112.84415 0-204.649041 91.804891-204.649041 204.649041s91.804891 204.649041 204.649041 204.649041S700.163276 395.44074 700.163276 282.59659 608.357396 77.947549 495.513245 77.947549z" p-id="13213" fill="#ffffff"></path><path d="M565.965286 902.841246H37.740186a19.786876 19.786876 0 0 1-19.382275-23.759683c22.200633-108.268893 81.645346-206.849122 167.385177-277.580129 42.696797-35.223052 90.585152-62.687458 142.337497-81.630507 53.560684-19.604855 109.893233-29.545776 167.43266-29.545777 90.366529 0 178.600246 24.932927 255.160873 72.10408 9.302859 5.731685 12.198378 17.919181 6.465705 27.223029-5.731685 9.301869-17.920171 12.197389-27.22303 6.466694-70.316514-43.322989-151.37227-66.223019-234.404537-66.223019-203.400614 0-381.650667 138.801936-432.836175 333.376507h503.288215c10.927199 0 19.784897 8.858688 19.784898 19.784898 0.000989 10.926209-8.856709 19.783908-19.783908 19.783907z" p-id="13214" fill="#ffffff"></path></svg>