<?xml version="1.0" standalone="no"?><!DOCTYPE svg PUBLIC "-//W3C//DTD SVG 1.1//EN" "http://www.w3.org/Graphics/SVG/1.1/DTD/svg11.dtd"><svg t="1643354706804" class="icon" viewBox="0 0 1024 1024" version="1.1" xmlns="http://www.w3.org/2000/svg" p-id="6444" xmlns:xlink="http://www.w3.org/1999/xlink" width="200" height="200"><defs><style type="text/css"></style></defs><path d="M893.456828 709.055005" p-id="6445" fill="#e1cdbc"></path><path d="M491.889987 337.939709" p-id="6446" fill="#e1cdbc"></path><path d="M568.154951 338.993714" p-id="6447" fill="#e1cdbc"></path><path d="M840.908008 431.453523l-2.212388-19.60143c-1.314948-10.737552-10.42442-20.657482-21.214161-20.657482-0.083911 0-0.156566 0-0.240477 0l-116.585275 4.425799 0-43.76169c0-3.291976 2.343371-6.373151 1.014096-9.157567 0.73985-1.01512 3.200902-2.013867 3.88754-3.03001 0.917906-1.304715 2.561335-2.650363 3.416819-3.997034l1.604544-1.909489c0.542352-0.824785 1.260713-1.648546 1.741667-2.50403 13.085016-21.641903 20.091594-46.49801 20.091594-71.906703 0-65.520249-51.498908-111.277386-125.3151-111.277386-1.387603 0-2.761903 0.020466-4.15974 0.052189C584.186066 90.183975 526.179954 47.139623 462.798415 47.139623c-73.02313 0-134.541229 52.330856-147.887188 122.32807-69.047586 5.14416-111.23236 44.10859-111.23236 104.255459 0 0.25071 0.01228 0.61603 0.032746 0.991584-0.020466 0.385786-0.030699 0.772596-0.030699 1.033539 0 34.234709 8.385994 62.385862 30.41573 84.656075-0.072655 0.714268-3.137457 1.409093-3.137457 2.14178l0 433.43362c0 1.085728 1.293459 2.848884 0.458441 4.204765-6.198166 10.17371-15.120372 27.193339-8.432043 54.782697 10.028401 41.446971 58.988486 57.527205 77.155241 63.580061 12.313443 4.101411 78.773088 24.563442 171.44472 24.886807 88.279602-0.313132 151.759379-19.127639 169.071673-24.886807 16.205077-5.405103 65.62258-21.86089 75.733868-63.569828 6.52153-26.900673-5.211698-43.669592-10.366092-53.68776-0.803295-1.544169 4.864798-3.589758-5.368264-4.653997l0-16.534582c53.211922-5.130857 82.968643-22.898523 107.269096-53.089126C865.693508 655.251611 853.347319 531.137873 840.908008 431.453523zM246.422366 272.432763c0.292666-50.849108 45.976124-62.364373 84.4596-62.364373 0.031722 0 0.072655 0 0.104377 0 0.793062 0 1.586125 0.892323 2.379187 0.913812 11.739369 0.083911 21.13025-8.582469 21.798469-20.081361 3.266393-57.047274 50.54621-101.379968 107.646696-101.379968 48.553833 0 92.598978 35.346019 101.938694 80.862679-0.010233 0.668219 0.020466 1.425466 0.072655 2.093684 0.917906 11.081383 10.184967 19.652596 21.298072 19.652596 0.156566 0 1.106194 0.054235 3.965312-0.290619 5.760191-0.688685 11.498892-1.032516 17.060561-1.032516 38.118156 0 82.623789 17.953907 82.623789 68.542072 0 17.958-4.706185 34.802644-14.514575 50.935066l-1.62808 2.558265c-0.459464 0.730641-0.907673 1.461281-1.670036 2.547009-3.015683 4.465708-6.678096 8.765641-11.102872 12.960173-1.784646 1.732457-3.683902 3.360538-5.478781 4.852518l-1.252527 1.106194c-5.478781 4.455475-11.520381 8.358365-18.605753 11.93789-27.464515 15.068184-78.815043 33.026184-167.416987 33.026184-146.694013 0-221.271546-34.633798-221.678822-102.960976 0.031722-0.521886 0.052189-1.447978 0.052189-1.980097C246.474554 273.974885 246.454088 272.965905 246.422366 272.432763zM674.952302 844.896856c-3.015683 12.428054-19.043728 23.561625-47.62467 33.099862-15.777335 5.248537-73.607438 22.403243-155.375743 22.695908-87.820138-0.313132-150.700257-20.410865-157.566642-22.695908-10.873652-3.620457-43.930535-14.640442-48.4075-33.099862-2.515287-10.382465-3.052522-14.921851 1.538029-22.455431 3.8814-6.364965 5.398964-14.285355 5.398964-24.938995l0-407.613558c54.235229 21.275559 110.034069 32.123628 191.871959 32.123628 77.301574 0 140.689253-13.241582 185.705516-37.941124 3.03308-1.529843 7.185656-3.310396 7.185656-5.037736l0 418.467767c0 9.756201 7.14984 17.290805 10.269901 23.352871C671.860894 828.451302 677.717276 833.480852 674.952302 844.896856zM774.638699 700.248432c-16.393365 20.37198-42.259476 32.402991-73.981968 36.824697L700.656731 437.296601l93.245707-0.279363C805.328675 528.511046 820.854277 642.835837 774.638699 700.248432z" p-id="6448" fill="#e1cdbc"></path></svg>