<?xml version="1.0" standalone="no"?><!DOCTYPE svg PUBLIC "-//W3C//DTD SVG 1.1//EN" "http://www.w3.org/Graphics/SVG/1.1/DTD/svg11.dtd"><svg t="1637800113492" class="icon" viewBox="0 0 1024 1024" version="1.1" xmlns="http://www.w3.org/2000/svg" p-id="8319" xmlns:xlink="http://www.w3.org/1999/xlink" width="200" height="200"><defs><style type="text/css"></style></defs><path d="M341.333333 682.666667h341.333334a42.666667 42.666667 0 0 1 0 85.333333H298.666667a42.666667 42.666667 0 0 1-42.666667-42.666667V170.666667H213.333333a42.666667 42.666667 0 1 1 0-85.333334h85.333334a42.666667 42.666667 0 0 1 42.666666 42.666667v85.376L344.448 213.333333h420.437333C813.738667 213.333333 853.333333 251.52 853.333333 298.666667c0 6.229333-0.725333 12.416-2.133333 18.517333l-49.109333 213.333333c-8.96 39.04-44.885333 66.816-86.357334 66.816H344.448L341.333333 597.290667V682.666667z m-21.333333 256a64 64 0 1 1 0-128 64 64 0 0 1 0 128z m384 0a64 64 0 1 1 0-128 64 64 0 0 1 0 128zM341.333333 298.666667v213.333333h376.789334L768 298.666667H341.333333z" fill="#ffffff" p-id="8320"></path></svg>