<?xml version="1.0" standalone="no"?><!DOCTYPE svg PUBLIC "-//W3C//DTD SVG 1.1//EN" "http://www.w3.org/Graphics/SVG/1.1/DTD/svg11.dtd"><svg t="1643353128983" class="icon" viewBox="0 0 1024 1024" version="1.1" xmlns="http://www.w3.org/2000/svg" p-id="2172" xmlns:xlink="http://www.w3.org/1999/xlink" width="200" height="200"><defs><style type="text/css"></style></defs><path d="M333.6 630.1s116.5-449.4 124.2-480.5 20.5-66 73.8-49.1c39.9 12.6 47.4 35 36.4 73.9-11 38.9-158.6 394-158.6 394M311.1 712S261.5 874.7 253 908c-8.5 33.4 16.3 35.8 26.9 11.2 10.6-24.6 100.3-249.6 100.3-249.6" fill="#FFC022" p-id="2173"></path><path d="M800.2 271c34.7-29.9 70.3-5.5 82.6 13.9 12.3 19.4 28.5 55.8-4.6 84-33 28.1-707.1 425-732 441.8-24.8 16.8-36.5-13.9-9.2-32C164.5 760.5 800.2 271 800.2 271z" fill="#FFD400" p-id="2174"></path></svg>