<?xml version="1.0" standalone="no"?><!DOCTYPE svg PUBLIC "-//W3C//DTD SVG 1.1//EN" "http://www.w3.org/Graphics/SVG/1.1/DTD/svg11.dtd"><svg t="1643355576870" class="icon" viewBox="0 0 1024 1024" version="1.1" xmlns="http://www.w3.org/2000/svg" p-id="7742" xmlns:xlink="http://www.w3.org/1999/xlink" width="200" height="200"><defs><style type="text/css"></style></defs><path d="M512.001012 1024c-282.773537 0-512.000512-229.227997-512.000512-511.999488 0-282.773537 229.226974-512.000512 512.000512-512.000512 282.771491 0 511.998465 229.226974 511.998465 512.000512C1023.999477 794.772003 794.771479 1024 512.001012 1024zM512.001012 64.999777C265.13529 64.999777 65.000277 265.135813 65.000277 512.000512c0 246.862652 200.135013 446.999711 446.999711 446.999711 246.863675 0 447.001758-200.137059 447.001758-446.999711C959.001746 265.135813 758.864687 64.999777 512.001012 64.999777zM482.000406 545.000257l-0.999713-351.000639 63.000351 0 0 319.000607 197.998471 166.000486-39.000071 54.999575L482.000406 545.000257z" p-id="7743" fill="#e1cdbc"></path></svg>