<svg t="1640901804315" class="icon" viewBox="0 0 1024 1024" version="1.1" xmlns="http://www.w3.org/2000/svg" p-id="7731" width="200" height="200"><path d="M507.6 960c-75.8 0-147.3-33.3-196.1-91.4-11.4-13.5-9.6-33.7 3.9-45.1 13.5-11.4 33.7-9.6 45.1 3.9C397.1 871 450.7 896 507.6 896c56.9 0 110.5-25 147.1-68.6 11.4-13.5 31.6-15.3 45.1-3.9s15.3 31.6 3.9 45.1C654.9 926.7 583.4 960 507.6 960zM825.2 778.9H198.8c-45.3 0-83.7-27.6-97.7-70.4-13.8-42.3 0.6-86.8 36.7-113.2l44.1-32.2c9.7-7.1 15.5-18.4 15.5-30.2V375.1c0-83.2 32.8-161.3 92.3-220.1C349.1 96.3 428 64 512 64s162.9 32.3 222.3 91c59.5 58.8 92.3 136.9 92.3 220.1v157.7c0 11.8 5.8 23.1 15.5 30.2l44.1 32.2c36.1 26.4 50.5 70.9 36.7 113.2-14 42.9-52.3 70.5-97.7 70.5zM512 128c-138.2 0-250.6 110.8-250.6 247.1v157.7c0 32.2-15.6 62.8-41.7 81.9l-44.1 32.2c-20.4 15-15.6 35.7-13.7 41.7 4.2 12.7 16 26.3 36.8 26.3h626.4c20.8 0 32.7-13.6 36.8-26.3 2-6 6.8-26.8-13.7-41.7l-44.1-32.2c-26.1-19.1-41.7-49.7-41.7-81.9V375.1C762.6 238.8 650.2 128 512 128z" fill="#EA9769" p-id="7732"></path></svg>