<svg width="30" height="30" viewBox="0 0 30 30" fill="none" xmlns="http://www.w3.org/2000/svg">
<path d="M15 24.375C9.83063 24.375 5.625 20.1694 5.625 15C5.625 9.83063 9.83063 5.625 15 5.625C20.1694 5.625 24.375 9.83063 24.375 15C24.375 20.1694 20.1694 24.375 15 24.375ZM15 3.75C8.79656 3.75 3.75 8.79656 3.75 15C3.75 21.2034 8.79656 26.25 15 26.25C21.2034 26.25 26.25 21.2034 26.25 15C26.25 8.79656 21.2034 3.75 15 3.75Z" fill="#EA7C69"/>
<path d="M19.0379 10.5874C18.9509 10.5002 18.8476 10.4311 18.7339 10.3839C18.6201 10.3368 18.4982 10.3125 18.3751 10.3125C18.252 10.3125 18.1301 10.3368 18.0163 10.3839C17.9026 10.4311 17.7993 10.5002 17.7123 10.5874L14.8126 13.4871L11.9129 10.5874C11.7371 10.4116 11.4987 10.3128 11.2501 10.3128C11.0015 10.3128 10.7631 10.4116 10.5873 10.5874C10.4115 10.7632 10.3127 11.0016 10.3127 11.2502C10.3127 11.4988 10.4115 11.7372 10.5873 11.913L13.487 14.8127L10.5873 17.7124C10.4165 17.8892 10.322 18.126 10.3242 18.3718C10.3263 18.6176 10.4249 18.8528 10.5987 19.0266C10.7725 19.2004 11.0077 19.299 11.2535 19.3011C11.4993 19.3033 11.7361 19.2088 11.9129 19.038L14.8126 16.1383L17.7123 19.038C17.7992 19.1254 17.9024 19.1947 18.0162 19.242C18.1299 19.2893 18.2519 19.3137 18.3751 19.3137C18.4983 19.3137 18.6203 19.2893 18.734 19.242C18.8478 19.1947 18.9511 19.1254 19.0379 19.038C19.1251 18.951 19.1942 18.8477 19.2413 18.734C19.2885 18.6202 19.3128 18.4983 19.3128 18.3752C19.3128 18.2521 19.2885 18.1301 19.2413 18.0164C19.1942 17.9027 19.1251 17.7994 19.0379 17.7124L16.1382 14.8127L19.0379 11.913C19.1251 11.826 19.1942 11.7227 19.2413 11.609C19.2885 11.4952 19.3128 11.3733 19.3128 11.2502C19.3128 11.1271 19.2885 11.0051 19.2413 10.8914C19.1942 10.7777 19.1251 10.6744 19.0379 10.5874Z" fill="#EA7C69"/>
</svg>
