<?xml version="1.0" standalone="no"?><!DOCTYPE svg PUBLIC "-//W3C//DTD SVG 1.1//EN" "http://www.w3.org/Graphics/SVG/1.1/DTD/svg11.dtd"><svg t="1640912439776" class="icon" viewBox="0 0 1024 1024" version="1.1" xmlns="http://www.w3.org/2000/svg" p-id="2109" xmlns:xlink="http://www.w3.org/1999/xlink" width="200" height="200"><defs><style type="text/css"></style></defs><path d="M624 0H400a32 32 0 0 0-32 32v96H160a32 32 0 0 0 0 64h32v800a32 32 0 0 0 32 32h576a32 32 0 0 0 32-32V192h32a32 32 0 0 0 0-64H656V32a32 32 0 0 0-32-32z m144 192v768H256V192h512zM432 128V64h160v64H432z" p-id="2110"></path><path d="M416 896a32 32 0 0 0 32-32V320a32 32 0 0 0-64 0v544a32 32 0 0 0 32 32zM608 896a32 32 0 0 0 32-32V320a32 32 0 0 0-64 0v544a32 32 0 0 0 32 32z" p-id="2111"></path></svg>