<svg t="1642986195203" class="icon" viewBox="0 0 1024 1024" version="1.1" xmlns="http://www.w3.org/2000/svg" p-id="10068" width="200" height="200"><path d="M511.87 113.99c54.03 0 106.41 10.57 155.67 31.4 47.62 20.14 90.41 49 127.17 85.76 36.76 36.76 65.61 79.55 85.76 127.17 20.84 49.26 31.4 101.64 31.4 155.67s-10.57 106.41-31.4 155.67c-20.14 47.62-48.99 90.41-85.76 127.17-36.76 36.76-79.55 65.61-127.17 85.76-49.26 20.84-101.64 31.4-155.67 31.4s-106.41-10.57-155.67-31.4c-47.62-20.14-90.41-48.99-127.17-85.76-36.76-36.76-65.61-79.55-85.76-127.17-20.84-49.26-31.4-101.64-31.4-155.67s10.57-106.41 31.4-155.67c20.14-47.62 49-90.41 85.76-127.17 36.76-36.76 79.55-65.61 127.17-85.76 49.26-20.84 101.63-31.4 155.67-31.4m0-80c-265.1 0-480 214.9-480 480s214.9 480 480 480 480-214.9 480-480-214.91-480-480-480z" fill="#594d9c" p-id="10069"></path><path d="M639.4 516.37l-0.08-0.08c-15.31-16.05-36.83-27.49-63.95-34l-100.12-22.96c-9.93-2.36-17.47-5.7-22.43-9.96l-0.08-0.07c-3.16-2.67-7.37-7.63-7.37-19.77 0-17.88 6.65-29.81 20.88-37.53 11.08-5.94 25.93-8.95 44.14-8.95 20.29 0 37.19 4.41 50.23 13.1l0.09 0.06c14.69 9.63 21.53 23.32 21.53 43.08 0 8.28 6.72 15 15 15h44.4c8.28 0 15-6.72 15-15 0-32.04-8.7-58.88-25.8-79.72-18.07-22.26-44.8-36.68-79.75-43.13l-0.19-73.83c-0.02-7.31-5.96-13.22-13.27-13.2l-53.54 0.14c-7.31 0.02-13.22 5.96-13.2 13.27l0.19 72.63c-28.05 5.11-51.2 16.94-69.09 35.38-21.57 22.35-32.51 51-32.51 85.16 0 31.44 11.62 56.46 34.59 74.4 13.01 10.06 30.35 17.72 51.54 22.76l71.82 16.47c33.55 7.83 47.49 15.05 53.27 19.73 6.61 5.35 9.82 14.37 9.82 27.59 0 12.79-4.58 22.13-14.37 29.35-13.24 9.72-34.22 14.64-62.36 14.64-23.79 0-42.93-4.86-56.89-14.44-16.64-11.44-24.72-28.62-24.72-52.54 0-8.28-6.72-15-15-15h-44.4c-8.28 0-15 6.72-15 15 0 19.85 2.83 37.95 8.41 53.77 5.85 16.63 16.67 32.16 32.1 46.11 12.32 11.24 25.48 19.74 39.14 25.27 10.17 4.1 21.76 7.19 34.68 9.25l0.19 73c0.02 7.31 5.96 13.22 13.27 13.2l53.54-0.14c7.31-0.02 13.22-5.96 13.2-13.27l-0.19-72.56c23.09-3.63 43.59-10.73 61.2-21.29 35.23-21.36 53.09-53.92 53.09-96.75 0-30.14-9.09-55.1-27.01-74.17z" fill="#594d9c" p-id="10070"></path></svg>