<svg width="18" height="16" viewBox="0 0 18 16" fill="none" xmlns="http://www.w3.org/2000/svg">
<path d="M14.1979 9.72722C15.9273 9.72722 17.3331 11.1149 17.3331 12.822C17.3331 14.5281 15.9273 15.9168 14.1979 15.9168C12.4685 15.9168 11.0626 14.5281 11.0626 12.822C11.0626 11.1149 12.4685 9.72722 14.1979 9.72722ZM14.1979 11.1788C13.2793 11.1788 12.5332 11.9153 12.5332 12.822C12.5332 13.7278 13.2793 14.4652 14.1979 14.4652C15.1165 14.4652 15.8626 13.7278 15.8626 12.822C15.8626 11.9153 15.1165 11.1788 14.1979 11.1788ZM7.43104 12.0959C7.83692 12.0959 8.16632 12.4211 8.16632 12.8217C8.16632 13.2224 7.83692 13.5475 7.43104 13.5475H1.40272C0.99684 13.5475 0.667434 13.2224 0.667434 12.8217C0.667434 12.4211 0.99684 12.0959 1.40272 12.0959H7.43104ZM3.80199 0.0834961C5.53137 0.0834961 6.93723 1.47219 6.93723 3.1783C6.93723 4.88441 5.53137 6.2731 3.80199 6.2731C2.07359 6.2731 0.666748 4.88441 0.666748 3.1783C0.666748 1.47219 2.07359 0.0834961 3.80199 0.0834961ZM3.80199 1.53509C2.88436 1.53509 2.13731 2.2725 2.13731 3.1783C2.13731 4.08409 2.88436 4.82151 3.80199 4.82151C4.7206 4.82151 5.46666 4.08409 5.46666 3.1783C5.46666 2.2725 4.7206 1.53509 3.80199 1.53509ZM16.5981 2.45269C17.004 2.45269 17.3334 2.77785 17.3334 3.17849C17.3334 3.57913 17.004 3.90429 16.5981 3.90429H10.5688C10.163 3.90429 9.83355 3.57913 9.83355 3.17849C9.83355 2.77785 10.163 2.45269 10.5688 2.45269H16.5981Z" fill="white"/>
</svg>
