<?xml version="1.0" standalone="no"?><!DOCTYPE svg PUBLIC "-//W3C//DTD SVG 1.1//EN" "http://www.w3.org/Graphics/SVG/1.1/DTD/svg11.dtd"><svg t="1638961538931" class="icon" viewBox="0 0 1024 1024" version="1.1" xmlns="http://www.w3.org/2000/svg" p-id="2342" xmlns:xlink="http://www.w3.org/1999/xlink" width="200" height="200"><defs><style type="text/css"></style></defs><path d="M875.52 189.44c11.1104 0 20.48 9.3696 20.48 20.48v604.16c0 11.1104-9.3696 20.48-20.48 20.48H148.48c-11.1104 0-20.48-9.3696-20.48-20.48V209.92c0-11.1104 9.3696-20.48 20.48-20.48h727.04m0-40.96H148.48c-33.792 0-61.44 27.648-61.44 61.44v604.16c0 33.792 27.648 61.44 61.44 61.44h727.04c33.792 0 61.44-27.648 61.44-61.44V209.92c0-33.792-27.648-61.44-61.44-61.44z" fill="#FFFFFF" p-id="2343"></path><path d="M834.4576 245.6064c-3.2768 0-6.5536 0.768-9.6256 2.4064L512 416.0512 199.168 248.064a20.3264 20.3264 0 0 0-9.6256-2.4064c-7.3216 0-14.4384 3.8912-18.1248 10.752-5.3248 9.9328-1.5872 22.4256 8.3456 27.7504L502.272 457.3184c3.072 1.6384 6.3488 2.304 9.6256 2.304h0.2048c3.2768 0 6.5536-0.6656 9.6256-2.304l322.5088-173.2096c9.9328-5.3248 13.6704-17.8176 8.3456-27.7504a20.63872 20.63872 0 0 0-18.1248-10.752z" fill="#FFFFFF" p-id="2344"></path></svg>