<?xml version="1.0" standalone="no"?><!DOCTYPE svg PUBLIC "-//W3C//DTD SVG 1.1//EN" "http://www.w3.org/Graphics/SVG/1.1/DTD/svg11.dtd"><svg t="1637799858296" class="icon" viewBox="0 0 1024 1024" version="1.1" xmlns="http://www.w3.org/2000/svg" p-id="6382" xmlns:xlink="http://www.w3.org/1999/xlink" width="200" height="200"><defs><style type="text/css"></style></defs><path d="M944 672h-86.112c-1.44-7.648-3.2-15.136-5.12-22.592l153.568-76.768a32.032 32.032 0 0 0-28.64-57.248l-146.496 73.216C775.328 468.032 653.44 384 512 384c-172.224 0-315.68 124.416-345.888 288H80A80.096 80.096 0 0 0 0 752c0 15.68 5.76 30.816 16.16 42.528L128 920.352v23.648C128 988.128 163.904 1024 208 1024h608c44.128 0 80-35.872 80-80v-23.648l111.808-125.824c10.432-11.712 16.192-26.848 16.192-42.528 0-44.128-35.872-80-80-80z m-118.432 0h-17.984l15.936-8c0.608 2.688 1.472 5.28 2.048 8zM512 416c128.928 0 240 76.8 290.624 186.912l-28.512 14.24C728.8 517.472 628.64 448 512 448c-137.024 0-251.488 95.776-280.64 224H198.464c29.728-145.888 159.008-256 313.536-256z m146.432 256c-24.736-56.416-80.992-96-146.432-96s-121.664 39.584-146.432 96H331.2c26.432-74.432 97.376-128 180.8-128a192.192 192.192 0 0 1 176.256 116.064l-23.808 11.936h-6.016zM512 640c-28.256 0-53.44 12.512-71.04 32h-39.168c22.208-38.048 63.04-64 110.208-64 47.136 0 88 25.952 110.176 64h-39.2A95.264 95.264 0 0 0 512 640z m0-128c-101.28 0-186.944 67.584-214.56 160H264.416c28.544-110.208 128.544-192 247.584-192 103.872 0 193.376 62.336 233.44 151.488l-28.576 14.272C682.048 567.136 603.36 512 512 512z m320 384v48a16 16 0 0 1-16 16h-608a16 16 0 0 1-16-16V896l-128-144a16 16 0 0 1 16-16h864a16 16 0 0 1 16 16L832 896zM255.264 374.784l0.256 0.576h0.064c2.656 5.12 7.968 8.64 14.176 8.64a16.096 16.096 0 0 0 15.488-20.096 1.088 1.088 0 0 0 0-0.64c-12-28.224-0.608-59.2 13.408-92.544 15.136-36.032 31.36-76.032 13.504-116.704a15.68 15.68 0 0 0-29.216 11.264l0.096 0.288 0.16 0.384c12.928 29.088 0.416 58.912-13.696 92.576-14.912 35.488-31.424 74.816-14.816 114.912l0.576 1.344zM644.928 370.112c0.128 0.192 0.192 0.384 0.256 0.576h0.064a16.032 16.032 0 0 0 29.728-11.424 0.768 0.768 0 0 0-0.064-0.64c-11.936-28.224-0.576-59.2 13.44-92.544 15.136-36.032 31.36-76.032 13.504-116.704a15.68 15.68 0 0 0-29.248 11.072v0.192l0.128 0.288a0.896 0.896 0 0 1 0.128 0.384c12.928 29.088 0.448 58.912-13.696 92.576-14.88 35.488-31.36 74.848-14.752 114.944l0.512 1.28zM480.608 230.784l0.256 0.576h0.064a16.032 16.032 0 0 0 30.24-7.424 15.104 15.104 0 0 0-0.576-4 1.088 1.088 0 0 0 0-0.64c-12-28.224-0.608-59.2 13.408-92.544 15.136-36.032 31.36-76.032 13.504-116.704a15.68 15.68 0 0 0-29.248 11.232l0.096 0.288 0.128 0.384c12.928 29.088 0.416 58.912-13.696 92.576-14.912 35.488-31.424 74.848-14.784 114.944l0.608 1.312z" fill="#333333" p-id="6383"></path></svg>