<?xml version="1.0" standalone="no"?><!DOCTYPE svg PUBLIC "-//W3C//DTD SVG 1.1//EN" "http://www.w3.org/Graphics/SVG/1.1/DTD/svg11.dtd"><svg t="1637798909153" class="icon" viewBox="0 0 1025 1024" version="1.1" xmlns="http://www.w3.org/2000/svg" p-id="2263" xmlns:xlink="http://www.w3.org/1999/xlink" width="200.1953125" height="200"><defs><style type="text/css"></style></defs><path d="M49.1648 435.392C37.5168 444.096 27.6608 442.944 27.6608 442.944c-11.2 0-19.712-9.088-19.712-9.088C0.2688 426.176 0.0128 414.976 0.0128 414.976c-0.448-15.936 11.072-24 11.072-24L492.8128 28.352c19.52-14.72 36.608 0 36.608 0l481.216 362.112c5.44 4.032 9.216 11.52 9.216 11.52 4.736 10.24 1.344 19.84 1.344 19.84-3.52 13.12-14.656 17.92-14.656 17.92-16.064 8-29.376-1.472-29.376-1.472L511.1808 87.68 49.1648 435.392z" p-id="2264" fill="#EA7C69"></path><path d="M175.3088 340.416c0 0-33.728 25.216-58.432 43.968l0 454.144c0 0-0.448 49.152 3.456 68.608 0 0 4.352 50.496 38.208 73.856 0 0 21.056 18.048 72.576 20.544l528.384 0.704c0 0 67.712 1.408 100.864-23.744 0 0 21.568-12.48 34.048-46.912 0 0 8.448-22.08 10.304-56.512 0 0 0.64-3.392 0.64-23.104l3.328-465.152-61.76-46.528-0.576 537.664c0 0-0.96 33.024-12.992 47.104 0 0-17.92 15.424-38.784 16.832l-553.088 2.112c0 0-39.232 0.832-50.56-11.52 0 0-10.624-8.128-12.992-27.456 0 0-1.472-11.904-2.688-40.32L175.3088 340.416z" p-id="2265" fill="#EA7C69"></path><path d="M408.7808 681.344c0 0-0.576-10.304 3.584-11.776 0 0 3.136-1.792 9.728-1.92l9.152-0.32 156.288 0.32c0 0 9.024 0.128 12.096 1.024 0 0 7.808 0.96 11.136 7.488 0 0 2.368 5.632 2.496 13.184l0.256 253.312 29.056-0.128 0-254.592c0 0-1.344-25.984-14.272-36.544 0 0-10.304-13.12-47.552-13.12L429.0688 638.272c0 0-26.048-0.768-36.672 9.984 0 0-8.64 6.592-11.072 25.344 0 0-1.728 10.048-1.6 21.312l0 248.576c0 0 0 0 29.312-0.128l0-249.344L408.7808 681.344z" p-id="2266" fill="#EA7C69"></path></svg>