<?xml version="1.0" standalone="no"?><!DOCTYPE svg PUBLIC "-//W3C//DTD SVG 1.1//EN" "http://www.w3.org/Graphics/SVG/1.1/DTD/svg11.dtd"><svg t="1643324854092" class="icon" viewBox="0 0 1286 1024" version="1.1" xmlns="http://www.w3.org/2000/svg" p-id="1576" xmlns:xlink="http://www.w3.org/1999/xlink" width="251.171875" height="200"><defs><style type="text/css"></style></defs><path d="M1004.897079 860.562328c0 90.266327-160.21893 163.43243-357.867534 163.43243-197.643362 0-357.867534-73.166103-357.867534-163.43243 0-90.245358 160.224172-163.421945 357.867534-163.421945 197.643362 0 357.867534 73.176587 357.867534 163.421945z" fill="#C3C3C4" p-id="1577"></path><path d="M958.801962 780.371608c-44.338962 125.976543-225.610773 222.114192-447.420915 231.440157 41.843651 7.837166 87.624232 12.182992 135.648498 12.182993 197.643362 0 357.867534-73.166103 357.867534-163.437672 0-29.141676-16.796173-56.485259-46.095117-80.185478z" fill="#A5A4A6" p-id="1578"></path><path d="M0.885364 268.004441c-2.290864 273.142267 148.46056 698.933652 635.979455 701.848344 479.409133 2.872754 646.657921-401.247164 648.948785-674.882203" fill="#DDDDDD" p-id="1579"></path><path d="M735.309058 418.787318c24.088145 213.862888-102.811034 459.069197-283.443291 479.414375-180.627014 20.345178-346.586209-191.876886-370.674354-405.734531C57.103268 278.604273 184.00769 88.745655 364.634704 68.400477c180.627014-20.345178 346.586209 136.529195 370.674354 350.386841z" fill="#FFFFFF" opacity=".39" p-id="1580"></path><path d="M876.325621 286.37329c24.56519 58.162779 38.063987 121.35812 38.063987 187.441941 0 225.118002-156.281999 416.821893-374.999211 489.327473a763.413345 763.413345 0 0 0 97.484907 6.704839c479.409133 2.872754 646.657921-401.247164 648.948785-674.882203l-409.498468-8.59205z" fill="#B2B2B2" opacity=".25" p-id="1581"></path><path d="M222.401939 509.551659a125.814034 100.651227 90 1 0 201.302454 0 125.814034 100.651227 90 1 0-201.302454 0Z" fill="#FFFFFF" opacity=".48" p-id="1582"></path><path d="M0.009908 287.285442c-1.347259 160.769366 285.56116 292.821679 640.823295 294.94479 355.27262 2.123112 644.361815-126.490284 645.703832-287.25965C1287.889536 134.201216 1000.981117 2.154146 645.71374 0.025792 290.44112-2.086835 1.351924 126.516076 0.009908 287.285442z" fill="#FAFAFA" p-id="1583"></path><path d="M55.31566 277.681637c-1.195233 142.667872 261.116542 259.905582 585.879259 261.845215 324.762716 1.939633 589.00364-112.152726 590.204116-254.815356 1.200476-142.678356-261.106058-259.910824-585.884501-261.850457-324.757474-1.939633-589.008883 112.147484-590.198874 254.820598z" fill="#EDEDED" p-id="1584"></path><path d="M85.217462 302.362157c-1.074662 127.386709 243.250949 232.132134 545.713129 233.956438 302.456937 1.824303 548.517733-99.974976 549.597636-227.361686 1.074662-127.391951-243.240465-232.137376-545.71837-233.96168C332.358162 73.176168 86.292124 174.970206 85.217462 302.362157z" fill="#CC975A" p-id="1585"></path><path d="M132.675564 278.924051c-0.901667 105.814844 212.704351 192.899125 477.092058 194.508496 264.392949 1.604129 479.445828-82.879995 480.352738-188.684355 0.896425-105.825329-212.699108-192.904367-477.102542-194.508496-264.382465-1.609371-479.445828 82.86951-480.342254 188.684355z" fill="#E6AA65" p-id="1586"></path><path d="M753.798479 81.878305c36.412678 59.861269-119.329369 144.932524-313.7802 143.773987-197.554244-1.179507-275.910176 161.864996-312.328096 102.003728-36.412678-59.856026 52.752776-210.733264 247.014886-218.219199 172.370468-6.63669 342.675489-87.414542 379.09341-27.558516z" fill="#00CF9F" p-id="1587"></path><path d="M754.579574 88.798077c30.47845 48.475099-123.428809 131.680113-308.197202 144.114733-187.709296 12.633826-273.45156 156.916311-303.935251 108.446455-30.483692-48.469856 64.689382-183.13281 249.86667-202.911825 164.313128-17.561542 331.776849-98.119219 362.265783-49.649363z" fill="#00C294" p-id="1588"></path><path d="M742.962745 99.964073c27.584727 43.321966-119.486636 122.584807-293.964489 138.280107C271.742009 254.191109 187.483302 387.323325 159.893333 344.006602c-27.579485-43.316723 65.344664-167.935524 240.378196-190.314695 155.322667-19.868133 315.096005-97.0498 342.691216-53.727834z" fill="#00A17B" p-id="1589"></path><path d="M321.407099 309.108934c20.44478 34.85573 72.90399 60.317345 125.672493 76.243305 54.67144 15.836841 109.657415 22.14327 179.180153 16.69657 68.636798-3.942173 129.892505-17.755505 185.691029-36.978841 54.08955-19.590293 102.727158-44.59059 106.706027-79.336233 3.84257-34.651282-55.027913-69.512254-116.299347-98.764016-63.609478-28.544059-129.619908-51.484151-194.251626-45.979787-119.041045 14.101656-318.697432 103.911907-286.698729 168.119002z" fill="#FF5F87" opacity=".92" p-id="1590"></path><path d="M555.253449 292.013953c-23.301807 85.972923 84.505093 169.308993 240.823787 186.110409 156.30821 16.817142 301.932712-39.238252 325.234519-125.226902 23.30705-85.972923-87.676655-206.078145-240.818544-186.115651-158.368415 20.649228-301.922227 39.253978-325.239762 125.232144z" fill="#8B5C29" p-id="1591"></path><path d="M827.693255 346.328919c-55.793282 19.223336-117.048989 33.036668-185.691029 36.978842-69.517496 5.446699-124.503471-0.854487-179.180153-16.696571-52.76326-15.92596-105.22247-41.387575-125.672493-76.243304-6.091496-12.22493-3.769179-25.372497 4.780933-38.755965-20.339935 19.689896-29.445726 39.589483-20.523414 57.497013 20.44478 34.85573 72.90399 60.317345 125.672493 76.243305 54.676682 15.836841 109.662657 22.14327 179.185395 16.69657 68.636798-3.942173 129.892505-17.755505 185.691029-36.978841 45.067635-16.319129 86.24552-36.41792 101.065365-62.760234-19.983462 17.477666-51.588996 31.799497-85.328126 44.019185z" fill="#CF4D6D" p-id="1592"></path><path d="M371.009282 274.929455c15.13438 23.77361 53.958494 41.141189 93.008024 51.997892 40.464939 10.80428 81.155294 15.102926 132.613234 11.38617 50.797416-2.689275 96.127164-12.109601 137.420378-25.220472 40.040316-13.357257 76.028372-30.4103 78.974517-54.110518 2.846543-23.637312-40.732293-47.410922-86.067283-67.362931-47.075418-19.469722-95.927958-35.1126-143.763503-31.359148-88.106519 9.624774-235.869859 70.875239-212.185367 114.669007z" fill="#FF8CAA" opacity=".92" p-id="1593"></path><path d="M555.358294 287.400771c-25.807604 80.526224 77.585321 154.248005 230.95787 164.64339 153.367307 10.400627 298.624851-46.441105 324.432455-126.983056 25.812846-80.526224-79.483016-188.249248-230.952628-164.643389-156.63323 24.423649-298.619609 46.45159-324.437697 126.983055z" fill="#E6E6E6" p-id="1594"></path><path d="M585.160494 283.41666c-24.711973 64.138946 60.160077 118.322856 189.580779 121.017374s254.369765-47.106871 279.081738-111.256302c24.717215-64.138946-60.553246-144.948251-189.575537-121.017373-133.42054 24.759153-254.369765 47.117356-279.08698 111.256301z" fill="#FFFFFF" p-id="1595"></path><path d="M683.153899 273.230966c-13.01651 40.622206 38.058745 77.726862 114.076633 82.879994 76.028372 5.158375 148.203689-23.590131 161.225442-64.201852 13.021752-40.616964-38.043018-77.726862-114.076633-82.879995-76.02313-5.158375-148.198447 23.590131-161.225442 64.201853z" fill="#E3C364" p-id="1596"></path><path d="M688.799804 264.97442c-13.556462 35.033966 31.841435 64.537357 101.406111 65.8951 69.569918 1.368228 136.953818-25.917691 150.51028-60.941173 13.561704-35.028724-31.836193-64.537357-101.406111-65.900342-69.569918-1.362985-136.943333 25.922933-150.51028 60.946415z" fill="#FFDB70" p-id="1597"></path><path d="M751.416793 248.183885a22.059394 46.577404 83.073 1 0 92.474835-11.234903 22.059394 46.577404 83.073 1 0-92.474835 11.234903Z" fill="#FFFFFF" opacity=".65" p-id="1598"></path></svg>